<?xml version="1.0"?>
<svg width="1024" height="1024" xmlns="http://www.w3.org/2000/svg" xmlns:svg="http://www.w3.org/2000/svg" enable-background="new 0 0 1024 1024" version="1.1" xml:space="preserve">
 <g class="layer">
  <title>Layer 1</title>
  <rect fill="#e87c93" height="1022.5" id="svg_2" stroke="#e87c93" stroke-width="4" width="1020" x="1.47" y="0.61"/>
  <path d="m210.41,8.42q14.03,-8.42 29.46,-8.42q15.43,0 29.46,8.42q18.23,9.82 36.47,29.45l143.08,131.86l102.4,0l143.08,-131.86q18.23,-19.63 36.47,-29.45q26.65,-4.21 43.49,-3.51q16.83,0.7 33.66,9.12q28.05,18.23 36.47,54.7q0,28.06 -18.24,47.7l-47.69,47.69l89.78,0q63.12,1.4 108.01,47.69q22.44,22.45 35.07,50.5q12.63,28.06 12.63,63.13l0,430.64q0,18.23 -0.7,33.66q-0.7,15.43 -4.91,32.27q-9.82,32.26 -27.35,61.01q-17.54,28.75 -45.59,47q-16.84,12.62 -38.58,18.23q-21.74,5.61 -44.19,5.61l-670.5,0q-18.24,0 -33.67,-0.7q-15.43,-0.7 -32.26,-4.91q-32.27,-8.41 -58.22,-27.35q-25.95,-18.94 -44.18,-51.2q-12.63,-18.24 -18.24,-39.28q-5.61,-21.04 -5.61,-43.48l0,-490.96q11.22,-56.11 50.5,-93.29q39.28,-37.17 93.98,-38.57l95.39,0q-8.42,-5.61 -18.24,-16.13q-9.82,-10.52 -23.84,-20.34q-12.63,-12.63 -18.24,-27.36q-5.61,-14.72 -5.61,-31.56q4.21,-18.23 13.32,-34.36q9.12,-16.13 23.15,-25.95l-0.01,0zm-12.62,293.17q-43.49,8.42 -60.32,53.3l0,389.96q1.4,26.66 13.33,47.7q11.92,21.04 35.76,29.46q8.42,4.2 14.74,5.61q6.31,1.4 14.72,0l591.96,0q22.44,0 40.67,-11.23q18.24,-11.23 32.26,-29.45q4.21,-14.03 4.91,-24.55q0.7,-10.52 0.7,-24.55l0,-364.71q-11.22,-35.07 -47.69,-53.31q-9.82,-12.62 -22.45,-15.43q-12.63,-2.81 -25.25,-2.81l-593.36,0l0.02,0.01zm113.62,119.23q26.65,0 54.71,18.24q12.62,9.82 18.23,25.95q5.61,16.13 5.61,34.37l0,77.15q0,29.45 -18.23,47.69q-14.03,14.03 -30.87,22.44q-16.84,8.42 -35.07,7.72q-18.23,-0.7 -34.36,-11.22q-16.13,-10.52 -25.95,-24.55q-9.82,-26.65 -11.22,-53.31l0,-78.55q8.41,-26.65 27.35,-43.49q18.94,-16.83 49.8,-22.44zm389.96,0q14.03,0 28.75,4.91q14.73,4.91 24.54,13.33q12.63,9.82 18.24,25.25q5.61,15.43 5.61,29.45l0,77.16q0,14.02 -1.4,27.35q-1.4,13.32 -11.22,25.95q-8.42,18.23 -24.55,27.35q-16.13,9.12 -34.37,9.12q-18.24,0 -34.37,-9.12q-16.13,-9.12 -25.96,-27.35q-8.41,-12.63 -10.51,-25.95q-2.11,-13.33 -0.7,-27.35l0,-77.16q0,-28.05 18.94,-47.69q18.94,-19.64 46.99,-25.25l0.01,0z" fill="#24b8f2" id="svg_1"/>
 </g>
</svg>